<mxfile host="app.diagrams.net" modified="2024-10-25T18:43:24.608Z" agent="Mozilla/5.0 (Macintosh; Intel Mac OS X 10.15; rv:131.0) Gecko/20100101 Firefox/131.0" etag="Qa2xpk6vJoluYlCKNWKo" version="23.0.2" type="github">
  <diagram name="Page-1" id="FqSng5cqO2YFpghJVZw0">
    <mxGraphModel dx="1021" dy="656" grid="1" gridSize="10" guides="1" tooltips="1" connect="1" arrows="1" fold="1" page="1" pageScale="1" pageWidth="827" pageHeight="583" math="0" shadow="0">
      <root>
        <mxCell id="0" />
        <mxCell id="1" parent="0" />
      </root>
    </mxGraphModel>
  </diagram>
</mxfile>
